<svg version="1.1" xmlns="http://www.w3.org/2000/svg" viewBox="0 0 764.2320556640625 731.0322265625" width="764.2320556640625" height="731.0322265625">
  <!-- svg-source:excalidraw -->
  
  <defs>
    <style class="style-fonts">
      @font-face {
        font-family: "Virgil";
        src: url("https://excalidraw.com/Virgil.woff2");
      }
      @font-face {
        font-family: "Cascadia";
        src: url("https://excalidraw.com/Cascadia.woff2");
      }
    </style>
  </defs>
  <rect x="0" y="0" width="764.2320556640625" height="731.0322265625" fill="#ffffff"></rect><g stroke-linecap="round" transform="translate(278.3179931640625 183.54296875) rotate(0 84.87890625 49.552734375)"><path d="M-1.95 0.39 C54.01 1.34, 103.88 -0.66, 170.48 -0.09 M-0.03 0.73 C62.45 2.18, 124.66 2.04, 169.01 -0.3 M169.21 -0.66 C167.81 26, 168.11 49.95, 170.65 97.91 M170.35 -0.65 C169.13 20.64, 168.93 42.6, 170.4 99.2 M171.12 98.71 C126.7 98.21, 85.53 96.95, 0.43 99.44 M170.72 99.18 C119.6 99.68, 67.72 100.58, 0.14 98.58 M1.44 99.48 C0.07 77.25, 0.79 56.54, 1.54 1.35 M-0.47 99.32 C0.38 61.93, -0.35 25.99, -0.53 -0.71" stroke="#862e9c" stroke-width="1" fill="none"></path></g><g stroke-linecap="round" transform="translate(280.7320556640625 352.89453125) rotate(0 84.87890625 49.552734375)"><path d="M0.61 -0.95 C62.83 0.66, 122.82 -0.82, 168.29 -1.06 M0.03 -0.4 C39.74 -2.04, 77.8 -1.15, 168.8 0.56 M170.27 0.22 C172.21 31.91, 170.97 68.21, 169.68 99.64 M169.55 0.9 C171.03 22.74, 170.48 44.38, 169.96 99.43 M168.29 99.04 C124.53 98.96, 81.16 100.16, -0.7 99.46 M169.59 98.12 C116.08 98.61, 62.9 98.67, -0.94 99.14 M-1.58 98.8 C1.93 66.97, 0.35 33.94, 0.7 1.79 M0.63 99.14 C0.36 60.39, -0.13 20.15, -0.53 -0.18" stroke="#364fc7" stroke-width="1" fill="none"></path></g><g stroke-linecap="round" transform="translate(385.7047119140625 493.8828125) rotate(0 84.87890625 49.552734375)"><path d="M-0.88 1.49 C41.68 -0.34, 82.52 0.54, 169.11 -0.03 M-0.03 -0.2 C61.76 -1.22, 122.94 -0.06, 170.5 -0.9 M170.61 -0.51 C171.41 35.15, 171.24 71.21, 170.98 99.27 M170.2 -0.76 C169.65 25.11, 171.22 50.47, 170.42 98.62 M170.19 98.54 C123.31 99.07, 75.21 99.05, 0.03 99.44 M168.9 98.7 C122.39 98.45, 75.93 99.36, 0.75 98.86 M1.06 98.4 C-2.11 63.49, 0.33 25.85, 1.75 -1.52 M0.6 99.4 C-0.2 76.17, 0.29 52.49, 0.15 0.76" stroke="#364fc7" stroke-width="1" fill="none"></path></g><g stroke-linecap="round" transform="translate(195.1578369140625 492.90625) rotate(0 84.87890625 49.552734375)"><path d="M-1.31 -1.13 C44.31 2.49, 88.44 -0.23, 170.38 -0.54 M0.08 0.08 C49.27 -1.83, 96.89 -1.03, 169.11 0.74 M168.43 0.51 C167.29 36.47, 169.77 72.14, 169 99.14 M170.66 0.46 C169.25 23.89, 168.46 48.27, 169.26 98.54 M170.18 100.73 C123.08 101.5, 73.96 101.45, -1.1 97.22 M170.63 98.94 C107.28 99.16, 45.6 99.71, -0.8 99.08 M-0.42 99.51 C-1.48 60.91, -1.34 24.57, -1.13 1.07 M-0.41 99.82 C-1.24 59.67, -1.01 20.63, -0.81 0.84" stroke="#364fc7" stroke-width="1" fill="none"></path></g><g stroke-linecap="round" transform="translate(584.4742431640625 352.20703125) rotate(0 84.87890625 49.552734375)"><path d="M-0.86 -1.32 C33.31 -0.65, 71.3 -0.78, 169.69 -1.79 M0.47 0.33 C57.47 -1.63, 114.5 -0.91, 170.09 -0.01 M171.36 0.22 C169.07 24.59, 168.63 50.69, 171.55 98.68 M170.69 0.39 C169.14 33.53, 169.85 65.7, 170.7 99.71 M169.82 98.34 C111.26 99.02, 55.38 98.45, 1.66 101.05 M169.45 99.44 C103.81 99.13, 36.07 98.77, -0.79 98.41 M-0.59 97.18 C-0.91 73.45, -0.94 45.41, 0.7 1.6 M-0.33 99.94 C1.05 71.11, 0.27 44.11, -0.57 0.76" stroke="#364fc7" stroke-width="1" fill="none"></path></g><g stroke-linecap="round" transform="translate(415.9898681640625 10.87109375) rotate(0 85 55)"><path d="M0.12 -1.58 C43.21 -2.57, 88.18 0.11, 171.75 1.95 M0.04 0.35 C40.47 1.57, 79.41 1.02, 169.28 -0.78 M168.85 0.51 C171.08 38.97, 172.22 76.2, 170.35 110.73 M170.13 0.24 C169.02 27.54, 170.55 55.44, 170.05 109.77 M171.13 108.85 C115.41 111.56, 64.8 109.04, -1.15 109.41 M170.75 109.52 C125.65 110.29, 81.98 110.3, -0.51 109.98 M-0.27 111.73 C0.74 75.93, -1.7 45.28, -0.49 -0.43 M-0.03 109.15 C-0.69 71.28, -0.26 31.69, 0.9 -0.29" stroke="#a61e4d" stroke-width="1" fill="none"></path></g><g stroke-linecap="round" transform="translate(190.2633056640625 10) rotate(0 85 55)"><path d="M0.87 -1.91 C66.64 -0.05, 132.36 -2.37, 170.04 1.29 M0.21 0.9 C41.77 -1.68, 82.78 -2.07, 169.85 0.52 M171.16 -0.9 C169.56 42.22, 170.49 81.02, 170.36 110.69 M169.28 0.48 C170.33 29.99, 169.92 60.36, 169.05 109.54 M170.26 108.68 C102.89 109.18, 38.35 110.3, 1.63 111.22 M169.25 109.1 C103.96 107.64, 38.35 108.61, 0.63 109.11 M-0.12 110.52 C0.66 80.14, 0.46 51.12, -0.91 -0.82 M-0.7 109.1 C-0.74 75.7, -0.82 41.72, 0.52 0.22" stroke="#a61e4d" stroke-width="1" fill="none"></path></g><g transform="translate(335.1968994140625 220.595703125) rotate(0 28 12.5)"><text x="28" y="18" font-family="Virgil, Segoe UI Emoji" font-size="20px" fill="#862e9c" text-anchor="middle" style="white-space: pre;" direction="ltr">Helios</text></g><g transform="translate(304.1109619140625 389.947265625) rotate(0 61.5 12.5)"><text x="61.5" y="18" font-family="Virgil, Segoe UI Emoji" font-size="20px" fill="#364fc7" text-anchor="middle" style="white-space: pre;" direction="ltr">Beerus Core</text></g><g transform="translate(419.5836181640625 530.935546875) rotate(0 51 12.5)"><text x="51" y="18" font-family="Virgil, Segoe UI Emoji" font-size="20px" fill="#364fc7" text-anchor="middle" style="white-space: pre;" direction="ltr">Beerus Cli</text></g><g transform="translate(212.5367431640625 517.458984375) rotate(0 67.5 25)"><text x="67.5" y="18" font-family="Virgil, Segoe UI Emoji" font-size="20px" fill="#364fc7" text-anchor="middle" style="white-space: pre;" direction="ltr">Beerus Rest </text><text x="67.5" y="43" font-family="Virgil, Segoe UI Emoji" font-size="20px" fill="#364fc7" text-anchor="middle" style="white-space: pre;" direction="ltr">API</text></g><g transform="translate(596.8531494140625 364.259765625) rotate(0 72.5 37.5)"><text x="72.5" y="18" font-family="Virgil, Segoe UI Emoji" font-size="20px" fill="#364fc7" text-anchor="middle" style="white-space: pre;" direction="ltr">StarkNet Full </text><text x="72.5" y="43" font-family="Virgil, Segoe UI Emoji" font-size="20px" fill="#364fc7" text-anchor="middle" style="white-space: pre;" direction="ltr">Node a.ka </text><text x="72.5" y="68" font-family="Virgil, Segoe UI Emoji" font-size="20px" fill="#364fc7" text-anchor="middle" style="white-space: pre;" direction="ltr">Untrusted Rpc</text></g><g transform="translate(421.8687744140625 15.87109375) rotate(0 79 50)"><text x="79" y="18" font-family="Virgil, Segoe UI Emoji" font-size="20px" fill="#a61e4d" text-anchor="middle" style="white-space: pre;" direction="ltr">Ethereum </text><text x="79" y="43" font-family="Virgil, Segoe UI Emoji" font-size="20px" fill="#a61e4d" text-anchor="middle" style="white-space: pre;" direction="ltr">Execution Layer</text><text x="79" y="68" font-family="Virgil, Segoe UI Emoji" font-size="20px" fill="#a61e4d" text-anchor="middle" style="white-space: pre;" direction="ltr"> a.k.a </text><text x="79" y="93" font-family="Virgil, Segoe UI Emoji" font-size="20px" fill="#a61e4d" text-anchor="middle" style="white-space: pre;" direction="ltr">Untrusted RPC</text></g><g transform="translate(220.6422119140625 27.5) rotate(0 54.5 37.5)"><text x="54.5" y="18" font-family="Virgil, Segoe UI Emoji" font-size="20px" fill="#a61e4d" text-anchor="middle" style="white-space: pre;" direction="ltr">Ethereum </text><text x="54.5" y="43" font-family="Virgil, Segoe UI Emoji" font-size="20px" fill="#a61e4d" text-anchor="middle" style="white-space: pre;" direction="ltr">Consensus </text><text x="54.5" y="68" font-family="Virgil, Segoe UI Emoji" font-size="20px" fill="#a61e4d" text-anchor="middle" style="white-space: pre;" direction="ltr">Layer</text></g><g stroke-linecap="round"><g transform="translate(371.3922119140625 184.296875) rotate(0 32.65661789297593 -30.080710765640248)"><path d="M-0.38 -0.53 C10.02 -11.02, 52.73 -51.94, 63.53 -61.96 M1.63 1.8 C12.29 -8.61, 55.36 -49.91, 65.69 -60.63" stroke="#000000" stroke-width="1" fill="none"></path></g><g transform="translate(371.3922119140625 184.296875) rotate(0 32.65661789297593 -30.080710765640248)"><path d="M52.01 -35.27 C57.07 -44.43, 64.28 -54.51, 64.6 -62.49 M52.46 -33.53 C55.75 -39.34, 58.98 -46.71, 64.74 -60.74" stroke="#000000" stroke-width="1" fill="none"></path></g><g transform="translate(371.3922119140625 184.296875) rotate(0 32.65661789297593 -30.080710765640248)"><path d="M37.56 -49.83 C48.44 -53.2, 61.36 -57.53, 64.6 -62.49 M38.01 -48.1 C44.58 -50.61, 51.17 -54.6, 64.74 -60.74" stroke="#000000" stroke-width="1" fill="none"></path></g></g><g stroke-linecap="round"><g transform="translate(365.5601806640625 177.921875) rotate(0 -31.478169186720635 -29.636721218149177)"><path d="M-1.12 -1.14 C-11.45 -11.32, -52.39 -50.41, -63 -60.14 M0.49 0.87 C-9.83 -9.23, -52.99 -49.06, -63.44 -58.91" stroke="#000000" stroke-width="1" fill="none"></path></g><g transform="translate(365.5601806640625 177.921875) rotate(0 -31.478169186720635 -29.636721218149177)"><path d="M-37.73 -45.61 C-42.81 -51.3, -47.75 -52.44, -61.98 -59.48 M-35.56 -46.45 C-44.84 -50.78, -52.7 -53.78, -63.92 -58.61" stroke="#000000" stroke-width="1" fill="none"></path></g><g transform="translate(365.5601806640625 177.921875) rotate(0 -31.478169186720635 -29.636721218149177)"><path d="M-51.72 -30.59 C-53.91 -39.38, -55.83 -43.76, -61.98 -59.48 M-49.55 -31.43 C-54.69 -40.21, -58.4 -47.65, -63.92 -58.61" stroke="#000000" stroke-width="1" fill="none"></path></g></g><g stroke-linecap="round"><g transform="translate(366.7155493428365 350.3359375) rotate(0 -0.9277141960986057 -36.19696852929425)"><path d="M0.79 0.55 C0.18 -11.26, -2.27 -58.99, -2.65 -70.95 M-0.25 -0.21 C-0.56 -12.39, 0 -61.33, -0.28 -72.94" stroke="#000000" stroke-width="1" fill="none"></path></g><g transform="translate(366.7155493428365 350.3359375) rotate(0 -0.9277141960986057 -36.19696852929425)"><path d="M11 -45.89 C6.52 -54.67, 2.07 -66.72, 0.31 -72.92 M9.83 -45.75 C7.13 -50.96, 5.93 -56.22, -0.51 -72.7" stroke="#000000" stroke-width="1" fill="none"></path></g><g transform="translate(366.7155493428365 350.3359375) rotate(0 -0.9277141960986057 -36.19696852929425)"><path d="M-9.52 -45.81 C-6.08 -54.76, -2.62 -66.83, 0.31 -72.92 M-10.69 -45.67 C-8.95 -50.88, -5.72 -56.16, -0.51 -72.7" stroke="#000000" stroke-width="1" fill="none"></path></g></g><g stroke-linecap="round"><g transform="translate(457.0289306640626 394.730449170488) rotate(0 65.15987686449193 0.5354420408238525)"><path d="M0.51 -0.26 C22.17 -0.12, 109.3 0.83, 131 1.46 M-0.68 -1.44 C20.79 -1.23, 108.62 1.97, 130.42 2.51" stroke="#000000" stroke-width="1" fill="none"></path></g><g transform="translate(457.0289306640626 394.730449170488) rotate(0 65.15987686449193 0.5354420408238525)"><path d="M101.5 13.07 C111.44 8.74, 125.97 5.77, 129.93 3.76 M101.97 12.46 C110.99 8.31, 121.42 5.78, 130.8 3.03" stroke="#000000" stroke-width="1" fill="none"></path></g><g transform="translate(457.0289306640626 394.730449170488) rotate(0 65.15987686449193 0.5354420408238525)"><path d="M102.13 -7.44 C111.93 -3.78, 126.22 1.25, 129.93 3.76 M102.61 -8.05 C111.61 -5.27, 121.83 -0.87, 130.8 3.03" stroke="#000000" stroke-width="1" fill="none"></path></g></g><g stroke-linecap="round"><g transform="translate(297.2305908203125 490.3438720703125) rotate(0 25.568584631024862 -18.272487203506728)"><path d="M1.16 -0.91 C9.56 -7.02, 42.46 -30.02, 50.83 -35.77 M0.3 1.23 C8.47 -5.35, 41.28 -31.33, 49.68 -37.77" stroke="#000000" stroke-width="1" fill="none"></path></g><g transform="translate(297.2305908203125 490.3438720703125) rotate(0 25.568584631024862 -18.272487203506728)"><path d="M32.27 -12.98 C39.32 -20.74, 45.24 -31.27, 51.11 -36.94 M33.99 -12.62 C38.27 -21.27, 43.49 -29.86, 49 -38.14" stroke="#000000" stroke-width="1" fill="none"></path></g><g transform="translate(297.2305908203125 490.3438720703125) rotate(0 25.568584631024862 -18.272487203506728)"><path d="M19.64 -29.15 C31.05 -31.6, 41.21 -36.7, 51.11 -36.94 M21.36 -28.79 C29.99 -31.84, 39.49 -34.95, 49 -38.14" stroke="#000000" stroke-width="1" fill="none"></path></g></g><g stroke-linecap="round"><g transform="translate(457.8516845703125 491.2032470703125) rotate(0 -39.92231195822825 -19.159851819942674)"><path d="M-0.46 0.16 C-13.95 -6.1, -67.94 -30.48, -81.34 -36.87 M1.49 -0.8 C-11.59 -7.44, -65.29 -32.43, -79.19 -38.48" stroke="#000000" stroke-width="1" fill="none"></path></g><g transform="translate(457.8516845703125 491.2032470703125) rotate(0 -39.92231195822825 -19.159851819942674)"><path d="M-49.01 -37.97 C-55.49 -37.86, -65.58 -38.81, -80.38 -39.77 M-49.77 -36.72 C-58.87 -37, -66.2 -36.45, -79.19 -39.24" stroke="#000000" stroke-width="1" fill="none"></path></g><g transform="translate(457.8516845703125 491.2032470703125) rotate(0 -39.92231195822825 -19.159851819942674)"><path d="M-57.48 -19.28 C-61.84 -24.04, -69.71 -29.89, -80.38 -39.77 M-58.24 -18.02 C-64.79 -23.88, -69.62 -28.87, -79.19 -39.24" stroke="#000000" stroke-width="1" fill="none"></path></g></g><g stroke-linecap="round" transform="translate(285.366455078125 640.8173828125) rotate(0 98.009765625 40.107421875)"><path d="M0.66 -1.55 C52.59 2.57, 106.27 0.53, 196.04 1.01 M0.07 -0.89 C51.61 -1.11, 103.41 -0.79, 196.36 0.48 M194.12 0.86 C194.16 22.23, 196.47 43.94, 195.5 79.17 M196.36 -0.91 C197.27 19.18, 196.16 35.68, 195.2 79.4 M196.18 78.85 C137.98 81.62, 79.04 80.33, 1.69 81.68 M196.96 80.75 C153.9 77.35, 111.69 79.26, -0.63 79.53 M1.11 78.46 C-0.91 50.1, -0.35 17.69, 0.02 0.31 M-0.19 79.73 C-0.58 60.57, -0.12 38.84, 0.36 0.25" stroke="#000000" stroke-width="1" fill="none"></path></g><g transform="translate(359.876220703125 668.4248046875) rotate(0 23.5 12.5)"><text x="23.5" y="18" font-family="Virgil, Segoe UI Emoji" font-size="20px" fill="#000000" text-anchor="middle" style="white-space: pre;" direction="ltr">User</text></g><g stroke-linecap="round"><g transform="translate(399.811767578125 639.6416015625) rotate(0 26.311148963868618 -22.93774009793998)"><path d="M-0.71 1.02 C8.17 -6.78, 44.36 -38.88, 53.34 -46.89 M1.11 0.5 C9.91 -7.17, 44.25 -38.09, 52.85 -45.89" stroke="#000000" stroke-width="1" fill="none"></path></g><g transform="translate(399.811767578125 639.6416015625) rotate(0 26.311148963868618 -22.93774009793998)"><path d="M40.49 -17.92 C41.4 -26.27, 45.47 -33.58, 53.91 -46.1 M38.17 -20.07 C42.62 -25.45, 44.3 -29.72, 51.98 -46.57" stroke="#000000" stroke-width="1" fill="none"></path></g><g transform="translate(399.811767578125 639.6416015625) rotate(0 26.311148963868618 -22.93774009793998)"><path d="M26.74 -33.15 C31.82 -36.78, 40.08 -39.44, 53.91 -46.1 M24.42 -35.3 C31.61 -37.72, 36.09 -38.9, 51.98 -46.57" stroke="#000000" stroke-width="1" fill="none"></path></g></g><g stroke-linecap="round"><g transform="translate(346.343017578125 634.9541015625) rotate(0 -12.574529669610797 -21.365384639799572)"><path d="M-1.03 -0.23 C-5.02 -7.21, -20.82 -35.55, -24.53 -42.5 M0.63 -1.4 C-3.52 -8.23, -21.72 -34.99, -25.78 -41.58" stroke="#000000" stroke-width="1" fill="none"></path></g><g transform="translate(346.343017578125 634.9541015625) rotate(0 -12.574529669610797 -21.365384639799572)"><path d="M-7.07 -28.21 C-13.39 -29.92, -17.28 -36.58, -25.07 -41.09 M-6.26 -26.29 C-13.16 -31.25, -18.54 -34.92, -26.18 -40.96" stroke="#000000" stroke-width="1" fill="none"></path></g><g transform="translate(346.343017578125 634.9541015625) rotate(0 -12.574529669610797 -21.365384639799572)"><path d="M-20.76 -19.29 C-23.59 -23.13, -24.02 -32.03, -25.07 -41.09 M-19.94 -17.37 C-22.72 -25.03, -24.03 -31.36, -26.18 -40.96" stroke="#000000" stroke-width="1" fill="none"></path></g></g><g stroke-linecap="round" transform="translate(10 354.502197265625) rotate(0 73.5 45.23046875)"><path d="M1.23 0.13 C52.28 0.32, 105.62 0.38, 145.78 -0.31 M-0.79 -0.11 C34.14 1.71, 68.57 0.28, 146.27 -0.83 M148.43 -1.05 C145.64 36.68, 145.28 71.35, 146.12 88.98 M147.66 0.83 C146.61 19.72, 147.63 40.97, 146.24 90.29 M148.26 91.43 C115.96 89.94, 80.34 91.6, -1.35 89.78 M146.33 89.64 C95.91 90.47, 46.16 90.87, -0.77 91.04 M-1.08 90.19 C0.89 69.48, -0.37 46.45, 0.67 -1.08 M-0.33 91.44 C-0.73 69.53, -0.71 49.43, 0.22 -0.24" stroke="#000000" stroke-width="1" fill="none"></path></g><g transform="translate(31.22265625 374.732666015625) rotate(0 52 25)"><text x="52" y="18" font-family="Virgil, Segoe UI Emoji" font-size="20px" fill="#000000" text-anchor="middle" style="white-space: pre;" direction="ltr">External </text><text x="52" y="43" font-family="Virgil, Segoe UI Emoji" font-size="20px" fill="#000000" text-anchor="middle" style="white-space: pre;" direction="ltr">Application</text></g><g stroke-linecap="round"><g transform="translate(159.6015625 401.869384765625) rotate(0 58.85934285074474 0.9039826735854035)"><path d="M-0.5 -0.98 C19.07 -0.44, 98.67 2.37, 118.21 2.79 M1.45 1.12 C20.81 1.38, 97.81 0.93, 117.41 1.19" stroke="#000000" stroke-width="1" fill="none"></path></g><g transform="translate(159.6015625 401.869384765625) rotate(0 58.85934285074474 0.9039826735854035)"><path d="M87.55 11.84 C101.24 5.8, 109.45 5.06, 118.91 -0.71 M88.26 12.07 C99.55 7.48, 109.32 5.09, 118.01 1.23" stroke="#000000" stroke-width="1" fill="none"></path></g><g transform="translate(159.6015625 401.869384765625) rotate(0 58.85934285074474 0.9039826735854035)"><path d="M87.61 -8.68 C101.19 -7.2, 109.39 -0.41, 118.91 -0.71 M88.31 -8.45 C99.65 -5.94, 109.4 -1.23, 118.01 1.23" stroke="#000000" stroke-width="1" fill="none"></path></g></g></svg>